<svg height="505pt" viewBox="0 -22 505.95635 505" width="505pt" xmlns="http://www.w3.org/2000/svg"><path d="m499.421875 361.210938c-15.445313 64.128906-84.957031 82.4375-109.339844 86.953124-7.117187 1.300782-14.234375 2.601563-21.347656 3.992188-63.921875 11.828125-129.292969 13.671875-193.78125 5.464844-111.769531-15.1875-167.570313-85.738282-174.164063-111.25-6.421874-25.425782 27.679688-3.734375 56.40625-3.734375 6.464844 0 12.902344-.789063 19.175782-2.339844.792968-.132813 1.574218-.308594 2.34375-.523437 6.609375-1.792969 12.96875-4.417969 18.917968-7.808594-.171874-.085938-.433593-.261719-.605468-.347656-19.265625-10.066407-15.792969-23.34375 12.320312-21 28.488282 1.289062 57.015625-1.339844 84.785156-7.808594-29.109374 3.570312-58.597656 2.546875-87.386718-3.039063-54.933594-9.371093-65.433594-49.550781-39.050782-42.695312 18.027344 3.6875 36.300782 6.066406 54.671876 7.117187-86.953126-13.800781-99.710938-82.355468-83.308594-72.375 16.921875 10.238282 78.101562 24.125 118.972656 30.285156 4.425781.695313 8.679688 1.300782 12.585938 1.734376 31.757812 3.90625 98.753906-15.53125 158.109374-3.46875.089844 0 .175782.085937.261719.085937h.171875c14.609375 2.792969 28.65625 7.984375 41.570313 15.359375 22.613281 12.722656 40.875 31.953125 52.414062 55.191406-1.390625 11.542969-3.382812 24.300782-3.730469 26.640625-1.273437 11.375-6.980468 21.789063-15.882812 28.984375-3.921875 2.785156-4.851562 8.21875-2.082031 12.152344 1.621093 2.273438 4.234375 3.628906 7.03125 3.644531 1.8125.011719 3.578125-.566406 5.03125-1.648437 10.898437-8.132813 18.53125-19.890625 21.519531-33.152344v-.257812c.089844-.261719.089844-.523438.175781-.78125l.171875-1.214844c.421875-2.472656.714844-4.964844.867188-7.464844l.089844-1.042969c.722656-13.941406-.179688-27.917969-2.691407-41.652343-6.507812-38.355469-39.746093-85.390626-69.769531-148.304688-30.027344-62.917969-6.855469-103.355469 14.839844-118.542969 21.691406-15.1875 48.074218-6.160156 68.292968 7.898438 14.492188 10.152343 21.957032 14.664062 25.339844 26.378906-14.839844 8.59375-40.699218 5.640625-40.699218 5.640625 11.945312 10.460938 17.679687 26.320312 15.1875 42.003906-11.960938-5.429687-22.90625-12.851562-32.371094-21.957031-15.53125-15.535156-25.683594-6.160156-24.902344 13.363281.777344 19.527344 10.066406 35.839844 50.9375 92.941406 40.875 57.101563 77.753906 108.476563 58.921875 186.578126zm0 0" fill="#ecf0f1"/><g fill="#bdc3c7"><path d="m435.03125 327.367188v.257812c-2.988281 13.261719-10.621094 25.019531-21.519531 33.152344-1.453125 1.082031-3.21875 1.660156-5.03125 1.648437-2.796875-.015625-5.410157-1.371093-7.03125-3.644531-2.769531-3.933594-1.839844-9.367188 2.082031-12.152344 8.902344-7.195312 14.609375-17.609375 15.882812-28.984375.347657-2.339843 2.339844-15.097656 3.730469-26.640625 3.21875 6.386719 5.886719 13.035156 7.984375 19.875 1.335938 4.207032 2.40625 8.5 3.210938 12.839844zm0 0"/><path d="m225.695312 427.179688c-2.226562.015624-4.449218-.117188-6.65625-.390626-10.074218-1.371093-13.09375-6.28125-13.886718-10.152343-1.136719-5.761719 2.242187-10.988281 10.03125-15.492188 17.640625-11.292969 33.851562-24.671875 48.285156-39.847656 7.976562-8.132813 14.058594-14.902344 16.757812-17.921875l1.1875-1.316406c3.230469-3.542969 8.722657-3.796875 12.261719-.566406 3.542969 3.230468 3.796875 8.722656.566407 12.261718l-1.101563 1.214844c-2.699219 3.019531-9.042969 10.085938-17.355469 18.546875-12.738281 13.09375-26.566406 25.082031-41.335937 35.839844 22.945312-2.777344 63.933593-15.621094 78.972656-45.472657 2.15625-4.285156 7.375-6.011718 11.660156-3.855468 4.285157 2.160156 6.011719 7.378906 3.855469 11.664062-20.828125 41.378906-77.339844 55.488282-103.242188 55.488282zm0 0"/><path d="m177.949219 413.09375c-5.832031.238281-11.65625-.644531-17.15625-2.601562-4.6875-1.582032-7.949219-5.847657-8.246094-10.789063-.164063-5.359375 3.308594-9.882813 10.320313-13.449219 17.285156-9.472656 34.070312-19.832031 50.289062-31.039062 3.980469-2.679688 9.375-1.621094 12.050781 2.359375 2.679688 3.980469 1.621094 9.375-2.359375 12.054687-11.914062 8.023438-27.59375 18.222656-41.246094 26.152344 30.472657-2.402344 59.34375-14.625 82.277344-34.832031 2.324219-2.054688 5.566406-2.710938 8.511719-1.726563 2.941406.988282 5.132813 3.46875 5.746094 6.511719.617187 3.039063-.4375 6.175781-2.761719 8.230469-27.035156 23.820312-61.425781 37.632812-97.425781 39.128906zm0 0"/><path d="m287.855469 356.609375c-3.410157 0-6.503907-2-7.90625-5.105469-1.402344-3.109375-.855469-6.75 1.398437-9.308594.25-.3125.597656-.703124.804688-.917968 3.328125-3.234375 8.605468-3.28125 11.988281-.105469 3.382813 3.171875 3.671875 8.441406.65625 11.96875-.253906.320313-.523437.625-.808594.917969-1.625 1.632812-3.832031 2.546875-6.132812 2.550781zm0 0"/><path d="m157.683594 387.097656c-16.777344.824219-33.363282-3.886718-47.207032-13.410156-5.464843-3.402344-8.09375-9.957031-6.492187-16.191406.992187-3.167969 4.210937-8.679688 14.640625-9.546875 18.214844-2.71875 36.070312-7.453125 53.238281-14.117188 2.660157-.851562 5.5625-.40625 7.84375 1.199219 2.28125 1.609375 3.675781 4.195312 3.769531 6.984375.007813 3.933594-2.632812 7.378906-6.429687 8.398437-16.007813 5.953126-32.476563 10.578126-49.238281 13.832032 14.300781 6.316406 46.929687 11.117187 86.128906-9.546875 11.960938-6.371094 23.136719-14.117188 33.304688-23.082031.316406-.265626.644531-.511719.988281-.738282 3.617187-2.914062 8.890625-2.460937 11.957031 1.027344 3.070312 3.488281 2.847656 8.773438-.5 11.992188-.433594.40625-.894531.785156-1.382812 1.125-11.09375 9.730468-23.277344 18.144531-36.308594 25.074218-19.734375 10.808594-41.808594 16.644532-64.3125 17zm0 0"/><path d="m223.550781 326.585938c.023438 3.277343-1.832031 6.277343-4.773437 7.722656-13.140625 7.265625-27.210938 12.695312-41.828125 16.140625-.171875 0-.347657.085937-.519531.085937h-.085938c-12.773438 3.191406-25.886719 4.820313-39.050781 4.859375-5.945313 0-11.886719-.347656-17.789063-1.039062-4.253906-.523438-8.246094-1.128907-12.152344-1.996094-8.472656-1.53125-16.703124-4.1875-24.46875-7.898437-.609374-.261719-3.125-1.910157-6.511718-4.164063.792968-.132813 1.574218-.308594 2.34375-.523437 6.609375-1.792969 12.96875-4.417969 18.917968-7.808594-.171874-.085938-.433593-.261719-.605468-.347656 7.9375 2.800781 16.179687 4.636718 24.558594 5.46875 16.839843 1.832031 33.871093.714843 50.332031-3.300782.257812-.085937.519531-.085937.78125-.171875.199219-.070312.402343-.128906.605469-.171875 12.886718-3.039062 25.296874-7.828125 36.882812-14.234375 1.417969-.839843 3.035156-1.289062 4.6875-1.300781 2.300781 0 4.507812.914062 6.132812 2.542969 1.628907 1.625 2.542969 3.832031 2.542969 6.136719zm0 0"/><path d="m328.726562 220.367188c-59.355468-12.0625-126.351562 7.375-158.109374 3.46875-3.90625-.433594-8.160157-1.039063-12.585938-1.734376-36.445312-15.707031-74.890625-37.226562-87.734375-77.582031-.867187-2.6875-1.996094-6.679687.957031-8.417969 3.558594-2.082031 10.414063 1.824219 13.449219 3.210938 9.800781 4.953125 19.226563 10.605469 28.203125 16.921875 54.238281 36.363281 69.425781 36.882813 145.53125 46.949219 24.144531 2.261718 47.824219 8.050781 70.289062 17.183594zm0 0"/></g><path d="m458.464844 61.386719c1.5625 1.214843 7.289062 7.722656.867187 34.625-3.210937-1.390625-7.550781-3.296875-12.496093-5.726563 2.492187-15.683594-3.242188-31.542968-15.1875-42.003906 0 0 25.859374 2.953125 40.699218-5.640625.652344 2.183594 1.492188 4.300781 2.515625 6.335937 1.304688 2.863282 2.867188 5.8125 3.992188 8.589844.433593.957032 1.214843 2.429688 1.824219 3.820313.046874.046875.078124.105469.085937.171875.261719.695312.519531 1.476562.78125 2.171875-7.746094 1.691406-15.832031.871093-23.082031-2.34375zm0 0" fill="#2c2f38"/><path d="m505.933594 108.074219c.257812 4.078125-1.5625 8.15625-6.164063 7.984375-7.113281-.347656-26.207031-12.757813-36.96875-18.3125-1.15625-.605469-2.195312-1.128906-3.121093-1.5625-.089844-.085938-.175782-.085938-.347657-.171875 3.277344-11.34375 1.6875-23.539063-4.390625-33.664063-.800781-1.257812-.898437-2.84375-.257812-4.191406s1.933594-2.273438 3.414062-2.445312c6.109375-.628907 11.921875-2.964844 16.765625-6.734376 1.304688 2.863282 2.867188 5.8125 3.992188 8.589844.433593.957032 1.214843 2.429688 1.824219 3.820313.046874.046875.078124.105469.085937.171875.261719.695312.519531 1.476562.78125 2.171875 1.300781 3.46875 2.429687 6.421875 2.863281 7.460937 1.039063 2.597656 2.257813 5.121094 3.644532 7.550782 3.992187 6.769531 10.152343 11.976562 14.234374 18.742187 2.050782 3.183594 3.300782 6.816406 3.644532 10.589844zm0 0" fill="#e57e25"/><path d="m441.777344 50.546875c0 4.792969-3.886719 8.679687-8.679688 8.679687-4.792968 0-8.675781-3.886718-8.675781-8.679687s3.882813-8.679687 8.675781-8.679687c4.792969 0 8.679688 3.886718 8.679688 8.679687zm0 0" fill="#464f5d"/></svg>