<?xml version="1.0" encoding="iso-8859-1"?>
<!-- Generator: Adobe Illustrator 19.0.0, SVG Export Plug-In . SVG Version: 6.00 Build 0)  -->
<svg version="1.1" id="Capa_1" xmlns="http://www.w3.org/2000/svg" xmlns:xlink="http://www.w3.org/1999/xlink" x="0px" y="0px"
	 viewBox="0 0 512 512" style="enable-background:new 0 0 512 512;" xml:space="preserve">
<path style="fill:#FF4C4C;" d="M327.513,49.74c-43.065,6.634-78.287,32.772-98.069,68.041c-29.48-27.681-70.934-42.006-114-35.372
	C41.125,93.858-9.842,163.387,1.607,237.707C27.652,406.78,282.758,463.863,282.758,463.863S508.857,332.65,482.811,163.578
	C471.362,89.258,401.833,38.291,327.513,49.74z"/>
<path style="fill:#F33939;" d="M482.811,163.578C471.362,89.258,401.833,38.291,327.513,49.74c-2.409,0.371-4.79,0.813-7.149,1.304
	c53.329,11.369,96.026,55.204,107.125,112.534c24.105,124.514-69.46,234.534-132.267,292.514
	C342.24,425.581,505.135,308.487,482.811,163.578z"/>
<path style="fill:#FFCCD7;" d="M436.058,193.55c-31.454-8.214-63.315-0.749-87.308,17.542
	c-11.987-27.687-36.13-49.776-67.584-57.989c-54.282-14.175-109.778,18.339-123.953,72.621
	c-32.247,123.489,125.53,238.143,125.53,238.143s193.69-22.876,225.937-146.364C522.854,263.22,490.341,207.725,436.058,193.55z"/>
<path style="fill:#FFB3CB;" d="M436.058,193.55c-19.125-4.994-38.396-4.183-55.962,1.324
	c51.493,16.036,81.776,69.902,68.007,122.628c-20.526,78.606-106.191,123.688-165.752,146.076c0.254,0.188,0.391,0.288,0.391,0.288
	s193.69-22.876,225.937-146.364C522.854,263.22,490.341,207.725,436.058,193.55z"/>
<g>
</g>
<g>
</g>
<g>
</g>
<g>
</g>
<g>
</g>
<g>
</g>
<g>
</g>
<g>
</g>
<g>
</g>
<g>
</g>
<g>
</g>
<g>
</g>
<g>
</g>
<g>
</g>
<g>
</g>
</svg>
