<?xml version="1.0" standalone="no"?>
<!DOCTYPE svg PUBLIC "-//W3C//DTD SVG 20010904//EN"
 "http://www.w3.org/TR/2001/REC-SVG-20010904/DTD/svg10.dtd">
<svg version="1.0" xmlns="http://www.w3.org/2000/svg"
 width="512.000000pt" height="512.000000pt" viewBox="0 0 512.000000 512.000000"
 preserveAspectRatio="xMidYMid meet">
<metadata>
Created by potrace 1.11, written by Peter Selinger 2001-2013
</metadata>
<g transform="translate(0.000000,512.000000) scale(0.100000,-0.100000)"
fill="#000000" stroke="none">
<path d="M4029 4885 c-2 -2 -19 -5 -37 -8 -71 -11 -163 -65 -236 -140 -103
-103 -179 -246 -201 -377 -4 -25 -9 -54 -11 -65 -12 -61 -2 -269 16 -330 5
-16 11 -41 14 -55 10 -50 15 -67 47 -155 18 -49 79 -182 136 -295 109 -217
165 -324 301 -570 169 -306 277 -553 317 -725 33 -141 51 -413 35 -535 l-5
-45 -14 55 c-59 250 -179 468 -351 641 -186 187 -374 294 -646 367 -60 16
-155 46 -210 65 -107 37 -318 92 -394 101 -25 3 -79 10 -120 16 -41 5 -95 12
-120 15 -25 3 -74 10 -110 15 -36 5 -86 12 -111 15 -25 3 -57 8 -70 10 -13 2
-60 9 -104 15 -395 57 -631 154 -1029 423 -153 103 -332 197 -377 197 -43 0
-55 -23 -41 -77 54 -201 226 -415 456 -568 89 -59 328 -188 406 -219 64 -25
-389 61 -630 120 -58 14 -112 27 -120 29 -132 31 -314 92 -398 133 -70 34 -88
25 -86 -44 4 -135 158 -342 348 -467 123 -81 222 -125 391 -173 66 -19 102
-32 80 -29 -22 2 -67 7 -100 10 -33 3 -71 8 -85 10 -14 2 -45 6 -70 9 -25 3
-56 8 -70 11 -14 3 -41 8 -60 11 -19 2 -56 9 -83 15 -102 23 -157 -17 -135
-99 42 -152 275 -295 548 -336 19 -3 44 -7 55 -10 28 -5 190 -26 250 -31 71
-6 324 -6 425 1 92 6 106 0 25 -10 -27 -4 -66 -11 -85 -16 -19 -5 -64 -12
-100 -15 -36 -4 -74 -9 -85 -11 -40 -8 -242 -16 -443 -17 -177 -2 -212 -5
-239 -20 -65 -35 -54 -95 30 -157 55 -41 53 -45 -52 -84 -206 -77 -324 -78
-623 -7 -153 37 -209 40 -239 10 -55 -55 23 -233 187 -430 373 -448 1010 -750
1720 -815 33 -3 70 -7 84 -9 171 -26 949 -26 1120 0 14 2 59 7 100 10 41 3 82
8 90 10 8 3 44 7 79 10 35 3 67 7 70 9 3 2 35 7 71 11 36 4 68 9 71 10 3 2 28
7 55 10 27 4 65 10 84 15 19 5 55 12 80 15 188 26 431 100 605 185 365 179
584 461 641 824 3 21 8 48 10 60 9 41 18 172 18 251 -2 323 -98 624 -316 985
-45 74 -201 303 -327 480 -316 444 -470 697 -501 825 -17 71 -20 183 -7 235 7
24 25 57 41 73 50 50 112 30 218 -69 79 -73 205 -154 352 -224 80 -39 192 -96
248 -128 247 -140 303 -146 303 -33 -1 59 -21 99 -100 196 -67 82 -96 134
-159 288 -122 295 -123 297 -286 412 -143 100 -250 153 -365 180 -33 8 -171
16 -176 10z"/>
</g>
</svg>
