<?xml version="1.0" standalone="no"?>
<!DOCTYPE svg PUBLIC "-//W3C//DTD SVG 20010904//EN"
 "http://www.w3.org/TR/2001/REC-SVG-20010904/DTD/svg10.dtd">
<svg version="1.0" xmlns="http://www.w3.org/2000/svg"
 width="700.000000pt" height="700.000000pt" viewBox="0 0 700.000000 700.000000"
 preserveAspectRatio="xMidYMid meet">
<metadata>
Created by potrace 1.11, written by Peter Selinger 2001-2013
</metadata>
<g transform="translate(0.000000,700.000000) scale(0.100000,-0.100000)"
fill="#000000" stroke="none">
<path d="M4515 6325 c-213 -30 -465 -112 -644 -212 -267 -148 -508 -373 -674
-630 l-60 -93 -41 35 c-302 259 -628 404 -1021 456 -140 18 -422 6 -571 -25
-555 -113 -1020 -458 -1283 -950 -163 -305 -242 -680 -212 -1009 54 -610 335
-1171 836 -1672 509 -510 1196 -927 2090 -1270 303 -116 885 -299 901 -283 2
3 -47 45 -109 95 -337 273 -717 662 -967 993 -166 220 -282 405 -390 619 -253
502 -332 968 -244 1426 113 584 544 1015 1129 1127 105 20 399 17 502 -6 112
-24 262 -75 353 -121 252 -126 479 -346 605 -588 26 -51 50 -94 51 -96 2 -2
38 19 81 47 163 107 348 179 548 214 101 17 143 19 265 14 330 -14 621 -128
863 -340 l75 -65 6 42 c50 333 24 714 -69 1010 -207 657 -773 1151 -1460 1273
-125 22 -431 27 -560 9z"/>
</g>
</svg>
